<svg width="41" height="41" viewBox="0 0 41 41" fill="none" xmlns="http://www.w3.org/2000/svg">
<path fill-rule="evenodd" clip-rule="evenodd" d="M14.7782 0.916687H27.0577C38.2645 0.916687 40.918 3.57018 40.918 14.777V27.0564C40.918 38.2632 38.2645 40.9167 27.0577 40.9167H14.7782C3.57146 40.9167 0.917969 38.2632 0.917969 27.0564V14.777C0.917969 3.57018 3.57146 0.916687 14.7782 0.916687Z" fill="#4680C2"/>
<path fill-rule="evenodd" clip-rule="evenodd" d="M33.6635 14.6923C33.8611 14.0713 33.6635 13.6197 32.7884 13.6197H29.8809C29.1469 13.6197 28.8082 14.0149 28.6106 14.4383C28.6106 14.4383 27.1145 18.0516 25.0256 20.3945C24.3481 21.072 24.0376 21.2979 23.6706 21.2979C23.473 21.2979 23.2189 21.072 23.2189 20.451V14.6641C23.2189 13.9302 22.9931 13.5914 22.3721 13.5914H17.799C17.3474 13.5914 17.0651 13.9302 17.0651 14.2689C17.0651 14.9746 18.1095 15.144 18.2225 17.12V21.4108C18.2225 22.3423 18.0531 22.5117 17.6861 22.5117C16.6981 22.5117 14.2987 18.8702 12.859 14.7206C12.5767 13.9019 12.2944 13.5914 11.5605 13.5914H8.62472C7.77786 13.5914 7.63672 13.9866 7.63672 14.4101C7.63672 15.1722 8.62472 19.0113 12.238 24.0925C14.6374 27.5646 18.0531 29.4277 21.13 29.4277C22.9931 29.4277 23.2189 29.0043 23.2189 28.2986V25.6733C23.2189 24.8264 23.3883 24.6853 23.9811 24.6853C24.4045 24.6853 25.1667 24.9111 26.8887 26.5766C28.8647 28.5526 29.2034 29.4559 30.3043 29.4559H33.2119C34.0587 29.4559 34.4539 29.0325 34.2281 28.2139C33.974 27.3952 33.0143 26.2096 31.7722 24.7982C31.0947 24.0078 30.0785 23.1327 29.768 22.7093C29.3446 22.1447 29.4575 21.9189 29.768 21.4108C29.7398 21.4108 33.2966 16.3861 33.6635 14.6923Z" fill="white"/>
</svg>
