<svg width="40" height="40" viewBox="0 0 40 40" fill="none" xmlns="http://www.w3.org/2000/svg">
<path d="M20 40C31.0457 40 40 31.0457 40 20C40 8.95431 31.0457 0 20 0C8.95431 0 0 8.95431 0 20C0 31.0457 8.95431 40 20 40Z" fill="url(#paint0_linear)"/>
<path d="M7.44673 20.9783C9.78473 19.6905 12.3946 18.6157 14.8331 17.5353C19.0282 15.7658 23.2401 14.027 27.4944 12.4082C28.3221 12.1323 29.8094 11.8626 29.9552 13.0893C29.8753 14.8256 29.5468 16.5518 29.3215 18.2779C28.7497 22.0739 28.0886 25.8569 27.444 29.6404C27.2219 30.9007 25.6432 31.5531 24.633 30.7466C22.2054 29.1068 19.759 27.4829 17.3624 25.8051C16.5773 25.0074 17.3053 23.8617 18.0065 23.2921C20.006 21.3216 22.1265 19.6474 24.0215 17.5751C24.5326 16.3407 23.0223 17.381 22.5241 17.6998C19.7868 19.5861 17.1164 21.5876 14.2304 23.2454C12.7563 24.0569 11.0381 23.3634 9.5646 22.9106C8.24345 22.3636 6.30743 21.8125 7.4466 20.9785L7.44673 20.9783Z" fill="white"/>
<defs>
<linearGradient id="paint0_linear" x1="26.6683" y1="6.668" x2="16.6683" y2="30" gradientUnits="userSpaceOnUse">
<stop stop-color="#37AEE2"/>
<stop offset="1" stop-color="#1E96C8"/>
</linearGradient>
</defs>
</svg>
