<svg width="80" height="80" viewBox="0 0 80 80" fill="none" xmlns="http://www.w3.org/2000/svg">
<g clip-path="url(#clip0)">
<path d="M79.9501 77.93L77.9501 69.93C77.0012 66.0491 74.1243 62.928 70.3334 61.6667L55.6667 56.78C52.09 55.29 50.4534 49.53 50.1 47.3433C52.8253 45.077 54.5789 41.8527 55 38.3333C54.9398 37.7322 55.0817 37.1281 55.4032 36.6166C55.9229 36.4864 56.3484 36.1142 56.5465 35.6166C57.5062 33.2928 58.1085 30.8372 58.3332 28.3333C58.3337 28.1972 58.317 28.0617 58.2832 27.93C58.0445 26.957 57.4725 26.0984 56.6665 25.5033V16.6666C56.6665 11.2966 55.0265 9.09328 53.2998 7.81656C52.9701 5.23 50.2001 0 40.0001 0C30.9506 0.364375 23.6978 7.61719 23.3334 16.6667V25.5034C22.5275 26.0986 21.9554 26.9572 21.7167 27.9302C21.6829 28.0619 21.6662 28.1975 21.6667 28.3334C21.8911 30.8386 22.4934 33.2953 23.4534 35.6202C23.5978 36.0912 23.9764 36.4536 24.4534 36.5769C24.6401 36.6702 24.9901 37.1536 24.9901 38.3336C25.4137 41.863 27.1775 45.0947 29.9168 47.3603C29.5668 49.5436 27.9401 55.3003 24.4636 56.7536L9.66684 61.6669C5.87887 62.928 3.00387 66.0459 2.05356 69.9236L0.0535574 77.9236C-0.172849 78.8158 0.366839 79.7227 1.25903 79.9491C1.39231 79.983 1.52934 80.0002 1.66684 80.0003H78.3335C79.254 80 79.9999 79.2536 79.9998 78.3331C79.9996 78.197 79.9829 78.0617 79.9501 77.93Z" fill="#CED4DA"/>
</g>
<defs>
<clipPath id="clip0">
<rect width="80" height="80" fill="white"/>
</clipPath>
</defs>
</svg>
