<svg width="28" height="28" viewBox="0 0 28 28" fill="none" xmlns="http://www.w3.org/2000/svg">
<path d="M16.1118 17.259L15.3778 17.9931C15.1817 18.1894 14.8894 18.254 14.6288 18.1586C13.8988 17.8901 12.9854 17.2085 11.8888 16.1118C10.7932 15.016 10.1106 14.1026 9.84316 13.3715C9.74747 13.1111 9.81163 12.8188 10.0076 12.6225L10.7426 11.8884C12.0968 10.5341 12.2206 8.40114 11.027 6.98543L10.1651 5.96104C9.18143 4.79103 7.4092 4.67313 6.2056 5.69653C5.75797 6.08231 5.42146 6.58062 5.23083 7.13998C5.14844 7.38347 5.09524 7.63589 5.07233 7.89192C4.6315 11.1642 6.20956 14.599 9.80552 18.1952C13.4015 21.7914 16.835 23.3686 20.108 22.9278C20.9583 22.8466 21.7446 22.4407 22.3032 21.7944C23.3275 20.5917 23.2086 18.8184 22.0397 17.8346L21.0154 16.9717C19.5978 15.7799 17.466 15.9047 16.1118 17.259ZM13.3031 14.6976C13.8269 15.2215 14.2837 15.6188 14.653 15.8894C16.7762 13.766 20.0801 13.5724 22.3039 15.4421L23.3275 16.3044C25.3567 18.0122 25.5597 21.0553 23.8163 23.1023C22.921 24.138 21.6608 24.7886 20.375 24.9099C16.3929 25.4463 12.3882 23.6067 8.39125 19.6094C4.39415 15.6119 2.5539 11.6062 3.08029 7.71369C3.11729 7.30008 3.20324 6.89233 3.33774 6.49482C3.64325 5.59839 4.18255 4.79979 4.91006 4.17286C6.94733 2.44062 9.98887 2.64355 11.6955 4.67347L12.556 5.6962C14.4281 7.91653 14.2363 11.223 12.156 13.3035C12.3819 13.7169 12.779 14.1735 13.3031 14.6976Z" fill="#0B1F35"/>
</svg>
